# xmcd
#
# Track frame offsets:
#	150
#	17146
#	30470
#	43241
#	55152
#	72444
#	84596
#	96387
#	114616
#	131365
#	150215
#	171950
#	188954
#	198246
#	212234
#	229993
#	246498
#	257881
#	277695
#	297165
#	309999
#	329484
#
# Disc length: 4594 seconds
#
# Revision: 2
# Processed by: cddbd v1.5.2PL0 Copyright (c) Steve Scherf et al.
# Submitted via: audiograbber 1.83.01
#
DISCID=4111f016
DTITLE=Various Artist - CDXMAS 1015 - Disc A
DYEAR=2002
DGENRE=Country
TTITLE0=Vince Vance and the Valiants - All I want for Christmas is You
TTITLE1=Kenny Chesney - Away in a Manger
TTITLE2=Doc Watson, Del McCoury and Mac Wiseman - Christmas Time's a Comin
TTITLE3=Clay Walker - Feliz Navidad
TTITLE4=Leland Martin - Flags on the Christmas Tree
TTITLE5=Brooks and Dunn - Hangin' Round the Mistletoe
TTITLE6=Dan Tyler - Happy Christmas
TTITLE7=Wayne Warner - If I Believed in Santa Claus
TTITLE8=Brooks and Dunn - It Won't be Christmas Without You
TTITLE9=Alan Jackson - Let it Be Christmas
TTITLE10=Sara Evans - O Come All Ye Faithful
TTITLE11=Martina Mcbride - O Holy Night
TTITLE12=Dean Miller - Old Toy Trains
TTITLE13=Brooks and Dunn - Rockin Little Christmas
TTITLE14=Patti Page - Silver Bells
TTITLE15=Margo Smith - The Littlest Star
TTITLE16=Lee Ann Womack - The Man with the Bag
TTITLE17=Larr Gatlin adn the Gatlin Brothers with Special Guest Mak Kaylor - Th
TTITLE17=ey saw a King
TTITLE18=SHeDaisy - What Child is This
TTITLE19=4 Sisters and A Cousin - White Christmas
TTITLE20=Lionel Cartwright - Who Would Believe
TTITLE21=Lonestar - Winter Wonderland
EXTD=
EXTT0=
EXTT1=
EXTT2=
EXTT3=
EXTT4=
EXTT5=
EXTT6=
EXTT7=
EXTT8=
EXTT9=
EXTT10=
EXTT11=
EXTT12=
EXTT13=
EXTT14=
EXTT15=
EXTT16=
EXTT17=
EXTT18=
EXTT19=
EXTT20=
EXTT21=
PLAYORDER=
